<svg width="25" height="25" viewBox="0 0 25 25" fill="none" xmlns="http://www.w3.org/2000/svg">
<path d="M14.0165 12.7705C14.4307 12.7683 14.7647 12.4307 14.7625 12.0165C14.7603 11.6023 14.4228 11.2683 14.0086 11.2705L14.0165 12.7705ZM5.67502 11.3144C5.26082 11.3166 4.9268 11.6541 4.92899 12.0684C4.93117 12.4826 5.26872 12.8166 5.68293 12.8144L5.67502 11.3144ZM6.31843 20.8708L5.95791 20.2132L5.95784 20.2132L6.31843 20.8708ZM19.8321 13.4629L20.1926 14.1206L20.1929 14.1204L19.8321 13.4629ZM19.8321 10.623L20.1929 9.96548L20.1926 9.9653L19.8321 10.623ZM6.31843 3.21507L5.95784 3.8727L5.95791 3.87273L6.31843 3.21507ZM3.97647 5.00749L3.24658 5.17997L3.24658 5.17999L3.97647 5.00749ZM5.63929 12.0434L6.36917 12.216C6.39599 12.1025 6.39599 11.9844 6.36918 11.8709L5.63929 12.0434ZM3.97647 19.0774L3.24659 18.9049L3.24658 18.9049L3.97647 19.0774ZM14.0086 11.2705L5.67502 11.3144L5.68293 12.8144L14.0165 12.7705L14.0086 11.2705ZM6.67894 21.5285L20.1926 14.1206L19.4715 12.8053L5.95791 20.2132L6.67894 21.5285ZM20.1929 14.1204C21.8307 13.2216 21.8307 10.8643 20.1929 9.96548L19.4712 11.2805C20.0713 11.6098 20.0713 12.4761 19.4712 12.8054L20.1929 14.1204ZM20.1926 9.9653L6.67894 2.5574L5.95791 3.87273L19.4715 11.2806L20.1926 9.9653ZM6.67901 2.55744C4.87887 1.57039 2.77659 3.1911 3.24658 5.17997L4.70637 4.83501C4.53225 4.09815 5.30803 3.5164 5.95784 3.8727L6.67901 2.55744ZM3.24658 5.17999L4.90939 12.2159L6.36918 11.8709L4.70637 4.83499L3.24658 5.17999ZM4.90941 11.8709L3.24659 18.9049L4.70636 19.25L6.36917 12.216L4.90941 11.8709ZM3.24658 18.9049C2.77678 20.893 4.87817 22.5159 6.67901 21.5285L5.95784 20.2132C5.30873 20.5691 4.53206 19.9875 4.70637 19.2499L3.24658 18.9049Z" fill="black"/>
</svg>
